<?xml version="1.0" encoding="UTF-8" standalone="no"?>
<svg
   width="24"
   height="24"
   viewBox="0 0 24 24"
   version="1.1"
   id="svg4"
   sodipodi:docname="bx-downvoted.svg"
   inkscape:version="1.2 (dc2aedaf03, 2022-05-15)"
   xmlns:inkscape="http://www.inkscape.org/namespaces/inkscape"
   xmlns:sodipodi="http://sodipodi.sourceforge.net/DTD/sodipodi-0.dtd"
   xmlns="http://www.w3.org/2000/svg"
   xmlns:svg="http://www.w3.org/2000/svg">
  <defs
     id="defs8" />
  <sodipodi:namedview
     id="namedview6"
     pagecolor="#ffffff"
     bordercolor="#000000"
     borderopacity="0.25"
     inkscape:showpageshadow="2"
     inkscape:pageopacity="0.0"
     inkscape:pagecheckerboard="0"
     inkscape:deskcolor="#d1d1d1"
     showgrid="false"
     inkscape:zoom="34.875"
     inkscape:cx="11.053763"
     inkscape:cy="12.014337"
     inkscape:window-width="1920"
     inkscape:window-height="1017"
     inkscape:window-x="-8"
     inkscape:window-y="-8"
     inkscape:window-maximized="1"
     inkscape:current-layer="svg4" />
  <path
     d="M20.901 10.566A1.001 1.001 0 0 0 20 10h-4V3a1 1 0 0 0-1-1H9a1 1 0 0 0-1 1v7H4a1.001 1.001 0 0 0-.781 1.625l8 10a1 1 0 0 0 1.562 0l8-10c.24-.301.286-.712.12-1.059zM12 19.399 6.081 12H10V4h4v8h3.919L12 19.399z"
     id="path2" />
  <path
     style="fill:#ff0000;stroke:#000000;stroke-width:0.00582079;stroke-linejoin:bevel"
     d="m 9.0551865,15.691794 -2.9418708,-3.677457 1.9469264,-0.0074 1.9469259,-0.0074 V 7.999801 4 H 12 13.992832 v 3.999801 3.999801 l 1.946963,0.0074 1.946963,0.0074 -2.924099,3.655914 c -1.608254,2.010753 -2.933436,3.665608 -2.94485,3.677457 -0.01141,0.01185 -1.344594,-1.633313 -2.9626225,-3.655914 z"
     id="path306" />
</svg>
