<?xml version="1.0" encoding="UTF-8" standalone="no"?>
<svg
   width="24"
   height="24"
   viewBox="0 0 24 24"
   version="1.1"
   id="svg139"
   sodipodi:docname="bx-error.svg"
   inkscape:version="1.2 (dc2aedaf03, 2022-05-15)"
   xmlns:inkscape="http://www.inkscape.org/namespaces/inkscape"
   xmlns:sodipodi="http://sodipodi.sourceforge.net/DTD/sodipodi-0.dtd"
   xmlns="http://www.w3.org/2000/svg"
   xmlns:svg="http://www.w3.org/2000/svg">
  <defs
     id="defs143" />
  <sodipodi:namedview
     id="namedview141"
     pagecolor="#ffffff"
     bordercolor="#000000"
     borderopacity="0.25"
     inkscape:showpageshadow="2"
     inkscape:pageopacity="0.0"
     inkscape:pagecheckerboard="0"
     inkscape:deskcolor="#d1d1d1"
     showgrid="false"
     inkscape:zoom="34.875"
     inkscape:cx="11.096774"
     inkscape:cy="12.014337"
     inkscape:window-width="1920"
     inkscape:window-height="1017"
     inkscape:window-x="-8"
     inkscape:window-y="-8"
     inkscape:window-maximized="1"
     inkscape:current-layer="svg139" />
  <path
     d="M11.001 10h2v5h-2zM11 16h2v2h-2z"
     id="path135" />
  <path
     d="M13.768 4.2C13.42 3.545 12.742 3.138 12 3.138s-1.42.407-1.768 1.063L2.894 18.064a1.986 1.986 0 0 0 .054 1.968A1.984 1.984 0 0 0 4.661 21h14.678c.708 0 1.349-.362 1.714-.968a1.989 1.989 0 0 0 .054-1.968L13.768 4.2zM4.661 19 12 5.137 19.344 19H4.661z"
     id="path137" />
  <path
     style="fill:#ff0000;stroke:#000000;stroke-width:0.0286738"
     d="M 4.1642871,20.91713 C 3.8394023,20.832005 3.520403,20.650892 3.2837763,20.417216 2.7372188,19.877475 2.5444517,19.131972 2.7684538,18.424271 2.815114,18.276855 4.0123131,15.987025 6.5245548,11.240143 8.5527404,7.4078853 10.253138,4.2017644 10.303215,4.1154301 c 0.117318,-0.2022574 0.477108,-0.5617456 0.684341,-0.683768 0.881859,-0.5192527 2.067775,-0.2645257 2.629979,0.5649025 0.09175,0.1353555 7.131314,13.4031534 7.48072,14.0992584 0.256977,0.511965 0.294899,1.008679 0.117702,1.541693 -0.203556,0.6123 -0.752338,1.117472 -1.391534,1.280951 -0.216873,0.05547 -0.3525,0.05642 -7.836178,0.05486 -7.3940478,-0.0015 -7.621547,-0.0032 -7.8239579,-0.0562 z M 19.354735,19.003584 C 19.354531,18.961101 12.022344,5.142438 12.000009,5.1424442 11.981203,5.1424495 4.703528,18.857 4.6544144,18.984988 c -0.013158,0.03429 1.0511219,0.0401 7.3425176,0.0401 4.046849,0 7.35786,-0.0097 7.357803,-0.02151 z"
     id="path435" />
  <path
     style="fill:#ff0000;stroke:#000000;stroke-width:0.0286738"
     d="M 11.010753,12.501792 V 10.021505 H 12 12.989247 v 2.480287 2.480287 H 12 11.010753 Z"
     id="path437" />
  <path
     style="fill:#ff0000;stroke:#000000;stroke-width:0.0286738"
     d="M 11.010753,17.003584 V 16.014337 H 12 12.989247 v 0.989247 0.989248 H 12 11.010753 Z"
     id="path439" />
</svg>
