<?xml version="1.0" encoding="UTF-8" standalone="no"?>
<svg
   width="24"
   height="24"
   viewBox="0 0 24 24"
   version="1.1"
   id="svg4"
   sodipodi:docname="bx-upvoted.svg"
   inkscape:version="1.2 (dc2aedaf03, 2022-05-15)"
   xmlns:inkscape="http://www.inkscape.org/namespaces/inkscape"
   xmlns:sodipodi="http://sodipodi.sourceforge.net/DTD/sodipodi-0.dtd"
   xmlns="http://www.w3.org/2000/svg"
   xmlns:svg="http://www.w3.org/2000/svg">
  <defs
     id="defs8" />
  <sodipodi:namedview
     id="namedview6"
     pagecolor="#ffffff"
     bordercolor="#000000"
     borderopacity="0.25"
     inkscape:showpageshadow="2"
     inkscape:pageopacity="0.0"
     inkscape:pagecheckerboard="0"
     inkscape:deskcolor="#d1d1d1"
     showgrid="false"
     inkscape:zoom="34.875"
     inkscape:cx="11.053763"
     inkscape:cy="12.014337"
     inkscape:window-width="1920"
     inkscape:window-height="1017"
     inkscape:window-x="-8"
     inkscape:window-y="-8"
     inkscape:window-maximized="1"
     inkscape:current-layer="svg4" />
  <path
     d="M12.781 2.375c-.381-.475-1.181-.475-1.562 0l-8 10A1.001 1.001 0 0 0 4 14h4v7a1 1 0 0 0 1 1h6a1 1 0 0 0 1-1v-7h4a1.001 1.001 0 0 0 .781-1.625l-8-10zM15 12h-1v8h-4v-8H6.081L12 4.601 17.919 12H15z"
     id="path2" />
  <path
     style="fill:#008000;stroke:#000000;stroke-width:0.00582079;stroke-linejoin:bevel"
     d="m 10.007168,16.000199 v -3.999801 l -1.9469505,-0.0074 -1.946951,-0.0074 2.9361801,-3.6702508 C 10.664346,6.2967742 11.992095,4.6451613 12,4.6451613 c 0.0079,0 1.335654,1.6516129 2.950553,3.6702509 l 2.93618,3.6702508 -1.94695,0.0074 -1.946951,0.0074 V 16.000199 20 H 12 10.007168 Z"
     id="path344" />
</svg>
