<?xml version="1.0" encoding="UTF-8" standalone="no"?>
<svg
   width="24"
   height="24"
   viewBox="0 0 24 24"
   version="1.1"
   id="svg4"
   sodipodi:docname="disliked.svg"
   inkscape:version="1.2 (dc2aedaf03, 2022-05-15)"
   xmlns:inkscape="http://www.inkscape.org/namespaces/inkscape"
   xmlns:sodipodi="http://sodipodi.sourceforge.net/DTD/sodipodi-0.dtd"
   xmlns="http://www.w3.org/2000/svg"
   xmlns:svg="http://www.w3.org/2000/svg">
  <defs
     id="defs8" />
  <sodipodi:namedview
     id="namedview6"
     pagecolor="#ffffff"
     bordercolor="#000000"
     borderopacity="0.25"
     inkscape:showpageshadow="2"
     inkscape:pageopacity="0.0"
     inkscape:pagecheckerboard="0"
     inkscape:deskcolor="#d1d1d1"
     showgrid="false"
     inkscape:zoom="34.875"
     inkscape:cx="11.053763"
     inkscape:cy="12.014337"
     inkscape:window-width="1920"
     inkscape:window-height="1017"
     inkscape:window-x="-8"
     inkscape:window-y="-8"
     inkscape:window-maximized="1"
     inkscape:current-layer="svg4" />
  <path
     d="M20 3H6.693A2.01 2.01 0 0 0 4.82 4.298l-2.757 7.351A1 1 0 0 0 2 12v2c0 1.103.897 2 2 2h5.612L8.49 19.367a2.004 2.004 0 0 0 .274 1.802c.376.52.982.831 1.624.831H12c.297 0 .578-.132.769-.36l4.7-5.64H20c1.103 0 2-.897 2-2V5c0-1.103-.897-2-2-2zm-8.469 17h-1.145l1.562-4.684A1 1 0 0 0 11 14H4v-1.819L6.693 5H16v9.638L11.531 20zM18 14V5h2l.001 9H18z"
     id="path2" />
  <path
     style="fill:#d40000;stroke:#000000;stroke-width:0.00582079;stroke-linejoin:bevel"
     d="m 10.408602,19.992636 c 0,-0.004 0.355133,-1.071792 0.789184,-2.37276 0.457916,-1.372497 0.796354,-2.431844 0.806265,-2.523696 0.0527,-0.488384 -0.268815,-0.94955 -0.748427,-1.073514 -0.149407,-0.03862 -0.615474,-0.04417 -3.7060928,-0.04417 H 4.0143369 L 4.0147411,13.082437 4.0151453,12.18638 5.3597119,8.6021505 6.7042785,5.0179211 11.352139,5.0106663 16,5.0034115 v 4.8030608 4.8030607 l -2.243728,2.694407 -2.243727,2.694408 -0.551972,8.26e-4 c -0.303584,4.56e-4 -0.551971,-0.0025 -0.551971,-0.0065 z"
     id="path306" />
  <path
     style="fill:#d40000;stroke:#000000;stroke-width:0.00582079;stroke-linejoin:bevel"
     d="M 18.007168,9.4910394 V 5.0035842 h 0.989248 0.989247 v 4.4874552 4.4874556 h -0.989247 -0.989248 z"
     id="path308" />
</svg>
