<?xml version="1.0" encoding="UTF-8" standalone="no"?>
<svg
   height="24"
   viewBox="0 -960 960 960"
   width="24"
   version="1.1"
   id="svg4"
   sodipodi:docname="heart.svg"
   inkscape:version="1.2 (dc2aedaf03, 2022-05-15)"
   xmlns:inkscape="http://www.inkscape.org/namespaces/inkscape"
   xmlns:sodipodi="http://sodipodi.sourceforge.net/DTD/sodipodi-0.dtd"
   xmlns="http://www.w3.org/2000/svg"
   xmlns:svg="http://www.w3.org/2000/svg">
  <defs
     id="defs8" />
  <sodipodi:namedview
     id="namedview6"
     pagecolor="#ffffff"
     bordercolor="#000000"
     borderopacity="0.25"
     inkscape:showpageshadow="2"
     inkscape:pageopacity="0.0"
     inkscape:pagecheckerboard="0"
     inkscape:deskcolor="#d1d1d1"
     showgrid="false"
     inkscape:zoom="34.875"
     inkscape:cx="11.369176"
     inkscape:cy="9.9498208"
     inkscape:window-width="1920"
     inkscape:window-height="1017"
     inkscape:window-x="1912"
     inkscape:window-y="-8"
     inkscape:window-maximized="1"
     inkscape:current-layer="svg4" />
  <path
     d="m480-120-58-52q-101-91-167-157T150-447.5Q111-500 95.5-544T80-634q0-94 63-157t157-63q52 0 99 22t81 62q34-40 81-62t99-22q94 0 157 63t63 157q0 46-15.5 90T810-447.5Q771-395 705-329T538-172l-58 52Zm0-108q96-86 158-147.5t98-107q36-45.5 50-81t14-70.5q0-60-40-100t-100-40q-47 0-87 26.5T518-680h-76q-15-41-55-67.5T300-774q-60 0-100 40t-40 100q0 35 14 70.5t50 81q36 45.5 98 107T480-228Zm0-273Z"
     id="path2"
     style="fill:#d40000" />
  <path
     style="fill:#d40000;stroke:#000000;stroke-width:0.00582079;stroke-linejoin:bevel"
     d="M 11.44086,17.771138 C 8.3252863,14.954915 6.4723738,13.072501 5.371336,11.604977 4.4898746,10.430116 4.0807257,9.4436075 4.0248459,8.3584229 3.969793,7.2892975 4.3064996,6.377 5.0191691,5.6643304 5.516465,5.1670346 6.0870496,4.8651094 6.7930025,4.7257055 7.1287644,4.6594029 7.8667091,4.6591783 8.2007168,4.725277 8.9432961,4.8722303 9.6663848,5.2464756 10.203122,5.7616511 10.52078,6.0665484 10.693031,6.2995255 10.888145,6.688172 L 11.05009,7.0107527 H 12 12.94991 L 13.111855,6.688172 c 0.195114,-0.3886465 0.367365,-0.6216236 0.685023,-0.9265209 0.536737,-0.5151755 1.259826,-0.8894208 2.002405,-1.0363741 0.335683,-0.06643 1.071851,-0.065882 1.411034,0.00105 0.707931,0.1396996 1.281663,0.4447545 1.782814,0.9479266 1.051373,1.0556123 1.281144,2.6575515 0.615315,4.2899036 -0.655831,1.6078388 -2.732187,3.9110958 -6.977622,7.7401288 -0.252329,0.227581 -0.497491,0.449442 -0.544802,0.493025 L 12,18.276554 Z"
     id="path478"
     transform="matrix(40,0,0,40,0,-960)" />
</svg>
