<?xml version="1.0" encoding="UTF-8" standalone="no"?>
<svg
   width="24"
   height="24"
   viewBox="0 0 24 24"
   version="1.1"
   id="svg6"
   sodipodi:docname="bx-news.svg"
   inkscape:version="1.2 (dc2aedaf03, 2022-05-15)"
   xmlns:inkscape="http://www.inkscape.org/namespaces/inkscape"
   xmlns:sodipodi="http://sodipodi.sourceforge.net/DTD/sodipodi-0.dtd"
   xmlns="http://www.w3.org/2000/svg"
   xmlns:svg="http://www.w3.org/2000/svg">
  <defs
     id="defs10" />
  <sodipodi:namedview
     id="namedview8"
     pagecolor="#ffffff"
     bordercolor="#000000"
     borderopacity="0.25"
     inkscape:showpageshadow="2"
     inkscape:pageopacity="0.0"
     inkscape:pagecheckerboard="0"
     inkscape:deskcolor="#d1d1d1"
     showgrid="false"
     inkscape:zoom="34.875"
     inkscape:cx="11.053763"
     inkscape:cy="12.014337"
     inkscape:window-width="1920"
     inkscape:window-height="1017"
     inkscape:window-x="-8"
     inkscape:window-y="-8"
     inkscape:window-maximized="1"
     inkscape:current-layer="svg6" />
  <path
     d="M19.875 3H4.125C2.953 3 2 3.897 2 5v14c0 1.103.953 2 2.125 2h15.75C21.047 21 22 20.103 22 19V5c0-1.103-.953-2-2.125-2zm0 16H4.125c-.057 0-.096-.016-.113-.016-.007 0-.011.002-.012.008L3.988 5.046c.007-.01.052-.046.137-.046h15.75c.079.001.122.028.125.008l.012 13.946c-.007.01-.052.046-.137.046z"
     id="path2" />
  <path
     d="M6 7h6v6H6zm7 8H6v2h12v-2h-4zm1-4h4v2h-4zm0-4h4v2h-4z"
     id="path4" />
  <path
     style="fill:#0000ff;stroke:#000000;stroke-width:0.00582079;stroke-linejoin:bevel"
     d="M 6.0215054,9.9928315 V 7.0107527 H 9.0035842 11.985663 V 9.9928315 12.97491 H 9.0035842 6.0215054 Z"
     id="path308" />
  <path
     style="fill:#aa0000;stroke:#000000;stroke-width:0.00582079;stroke-linejoin:bevel"
     d="M 14.021505,8 V 7.0107527 H 16 17.978495 V 8 8.9892473 H 16 14.021505 Z"
     id="path379" />
  <path
     style="fill:#008080;stroke:#000000;stroke-width:0.00582079;stroke-linejoin:bevel"
     d="M 14.021505,12 V 11.02509 H 16 17.978495 V 12 12.97491 H 16 14.021505 Z"
     id="path450" />
  <path
     style="fill:#008080;stroke:#000000;stroke-width:0.00582079;stroke-linejoin:bevel"
     d="M 3.5842294,20.916078 C 2.8657813,20.73008 2.3025861,20.201649 2.0883603,19.512545 L 2.0215054,19.297491 V 12 4.702509 L 2.0883603,4.4874552 C 2.3056772,3.7884077 2.8649567,3.2671837 3.5959846,3.0824158 3.8201372,3.025761 3.9185629,3.0250896 12,3.0250896 c 8.081437,0 8.179863,6.714e-4 8.404015,0.057326 0.728338,0.184088 1.291711,0.7090901 1.507728,1.4050394 l 0.06675,0.2150538 V 12 19.297491 l -0.06675,0.215054 c -0.215404,0.693972 -0.781459,1.221474 -1.507728,1.405039 -0.22423,0.05667 -0.3199,0.05731 -8.41577,0.05575 -8.0112884,-0.0015 -8.1936278,-0.0028 -8.4040156,-0.05725 z m 16.3405016,-1.90891 0.08961,-0.01792 V 11.99976 5.0102728 l -0.06452,-0.01729 C 19.863938,4.9699674 4.1903377,4.9698178 4.0752688,4.9928315 l -0.089606,0.017921 v 6.9907295 c 0,6.633725 0.00256,6.991399 0.050179,7.003842 0.077677,0.0203 15.7874962,0.02212 15.8888892,0.0018 z"
     id="path866" />
  <path
     style="fill:#483e37;stroke:#000000;stroke-width:0.00582079;stroke-linejoin:bevel"
     d="M 6.0215054,16 V 15.010753 H 12 17.978495 V 16 16.989247 H 12 6.0215054 Z"
     id="path937" />
</svg>
