<?xml version="1.0" encoding="UTF-8" standalone="no"?>
<svg
   width="258.67621"
   height="54.241062"
   viewBox="0 0 258.6762 54.241062"
   version="1.1"
   id="svg6"
   sodipodi:docname="logo.svg"
   inkscape:version="1.2 (dc2aedaf03, 2022-05-15)"
   xmlns:inkscape="http://www.inkscape.org/namespaces/inkscape"
   xmlns:sodipodi="http://sodipodi.sourceforge.net/DTD/sodipodi-0.dtd"
   xmlns:xlink="http://www.w3.org/1999/xlink"
   xmlns="http://www.w3.org/2000/svg"
   xmlns:svg="http://www.w3.org/2000/svg">
  <defs
     id="defs10">
    <rect
       x="265.6344"
       y="91.985664"
       width="283.06812"
       height="113.319"
       id="rect443" />
    <linearGradient
       inkscape:collect="always"
       id="linearGradient1203">
      <stop
         style="stop-color:#008080;stop-opacity:1;"
         offset="0"
         id="stop1199" />
      <stop
         style="stop-color:#008080;stop-opacity:0;"
         offset="1"
         id="stop1201" />
    </linearGradient>
    <linearGradient
       inkscape:collect="always"
       id="linearGradient1195">
      <stop
         style="stop-color:#42731e;stop-opacity:1;"
         offset="0"
         id="stop1191" />
      <stop
         style="stop-color:#2883dc;stop-opacity:1;"
         offset="1"
         id="stop1193" />
    </linearGradient>
    <rect
       x="-19.268818"
       y="-22.250896"
       width="240.63081"
       height="121.34767"
       id="rect647" />
    <linearGradient
       inkscape:collect="always"
       xlink:href="#linearGradient1195"
       id="linearGradient1197"
       x1="8.1776533"
       y1="11.033865"
       x2="26.58354"
       y2="11.033865"
       gradientUnits="userSpaceOnUse" />
    <linearGradient
       inkscape:collect="always"
       xlink:href="#linearGradient1203"
       id="linearGradient1205"
       x1="0.34408587"
       y1="27.05164"
       x2="59.985664"
       y2="27.05164"
       gradientUnits="userSpaceOnUse" />
  </defs>
  <sodipodi:namedview
     id="namedview8"
     pagecolor="#ffffff"
     bordercolor="#000000"
     borderopacity="0.25"
     inkscape:showpageshadow="2"
     inkscape:pageopacity="0.0"
     inkscape:pagecheckerboard="0"
     inkscape:deskcolor="#d1d1d1"
     showgrid="false"
     inkscape:zoom="4.359375"
     inkscape:cx="126.39427"
     inkscape:cy="55.741935"
     inkscape:window-width="1920"
     inkscape:window-height="1017"
     inkscape:window-x="-8"
     inkscape:window-y="-8"
     inkscape:window-maximized="1"
     inkscape:current-layer="g720"
     showguides="true">
    <sodipodi:guide
       position="-17.433691,1.9399861"
       orientation="1,0"
       id="guide1166"
       inkscape:locked="false" />
  </sodipodi:namedview>
  <g
     id="g720"
     inkscape:export-filename="logo.svg"
     inkscape:export-xdpi="879.20148"
     inkscape:export-ydpi="879.20148"
     transform="matrix(9.1583492,0,0,9.1583492,-7.0246836,-73.168317)">
    <path
       d="M 6.6484767,7.9892473 H 1.4662186 c -0.3856258,0 -0.69919351,0.2951419 -0.69919351,0.6580645 v 4.6064522 c 0,0.362922 0.31356771,0.658064 0.69919351,0.658064 h 5.1822581 c 0.3856258,0 0.6991936,-0.295142 0.6991936,-0.658064 V 8.6473118 c 0,-0.3629226 -0.3135678,-0.6580645 -0.6991936,-0.6580645 z m 0,5.2645167 H 1.4662186 c -0.018755,0 -0.031587,-0.0053 -0.037181,-0.0053 -0.0023,0 -0.00362,6.58e-4 -0.00395,0.0026 l -0.00395,-4.5886867 c 0.0023,-0.00329 0.01711,-0.015135 0.045077,-0.015135 h 5.1822581 c 0.025994,3.29e-4 0.040142,0.00921 0.041129,0.00263 l 0.00395,4.5886837 c -0.0023,0.0033 -0.01711,0.01513 -0.045077,0.01513 z"
       id="path2"
       style="stroke-width:0.329032" />
    <path
       style="fill:#0000ff;stroke:#000000;stroke-width:0.00152039;stroke-linejoin:bevel"
       d="M 2.0900327,10.290115 V 9.3087169 h 0.6182136 0.6182136 v 0.9813981 0.981397 H 2.7082463 2.0900327 Z"
       id="path308" />
    <path
       style="fill:#0000ff;stroke:#000000;stroke-width:0.00159546;stroke-linejoin:bevel"
       d="M 4.6536024,10.290115 V 9.3087544 h 0.680794 0.680794 v 0.9813606 0.98136 h -0.680794 -0.680794 z"
       id="path308-1" />
    <path
       style="fill:#008080;stroke:#000000;stroke-width:0.00191523;stroke-linejoin:bevel"
       d="m 1.2882877,13.884215 c -0.2363926,-0.0612 -0.42170201,-0.23507 -0.49218921,-0.461808 l -0.021997,-0.07076 v -2.40111 -2.4011096 l 0.021997,-0.07076 C 0.86760249,8.2486583 1.0516238,8.0771588 1.2921555,8.0163642 c 0.073754,-0.018641 0.1061387,-0.018862 2.7651922,-0.018862 2.6590534,0 2.6914388,2.209e-4 2.765192,0.018862 0.2396467,0.060571 0.4250146,0.2333135 0.4960912,0.4623033 l 0.021963,0.07076 v 2.4011105 2.40111 l -0.021963,0.07076 c -0.070875,0.22834 -0.2571253,0.401905 -0.4960912,0.462304 -0.073779,0.01865 -0.1052574,0.01886 -2.7690598,0.01834 -2.6359723,-4.93e-4 -2.6959679,-9.21e-4 -2.7651922,-0.01884 z m 5.3765521,-0.628093 0.029485,-0.0059 V 10.950459 8.6506919 l -0.021229,-0.00569 c -0.028258,-0.00757 -5.1853783,-0.00762 -5.2232397,-4.98e-5 l -0.029483,0.0059 v 2.3001759 c 0,2.182709 8.423e-4,2.300396 0.01651,2.30449 0.025558,0.0067 5.1945955,0.0073 5.2279571,5.92e-4 z"
       id="path866" />
    <path
       style="fill:#483e37;stroke:#000000;stroke-width:0.00191523;stroke-linejoin:bevel"
       d="m 2.0902301,12.266667 v -0.325494 h 1.9671176 1.9671177 v 0.325494 0.325494 H 4.0573477 2.0902301 Z"
       id="path937" />
    <text
       xml:space="preserve"
       transform="matrix(0.10918998,0,0,0.10918998,0.76702509,7.9892473)"
       id="text645"
       style="font-size:53.3333px;font-family:'Microsoft YaHei UI';-inkscape-font-specification:'Microsoft YaHei UI';white-space:pre;shape-inside:url(#rect647);display:inline;fill:#800000;stroke:#000000;stroke-width:0.203;stroke-linejoin:bevel" />
    <path
       style="fill:#008080;stroke:#000000;stroke-width:0.0465663;stroke-linejoin:bevel"
       d="m 12.157706,39.225806 v -2.867383 h 17.892473 17.892473 v 2.867383 2.867384 H 30.050179 12.157706 Z"
       id="path411"
       transform="matrix(0.10918998,0,0,0.10918998,0.76702509,7.9892473)" />
    <path
       style="fill:#008080;stroke:#000000;stroke-width:0.0465663;stroke-linejoin:bevel"
       d="m 12.157706,21.103943 v -8.831542 h 5.620072 5.620071 v 8.831542 8.831541 h -5.620071 -5.620072 z"
       id="path413"
       transform="matrix(0.10918998,0,0,0.10918998,0.76702509,7.9892473)" />
    <path
       style="fill:#aa0000;stroke:#000000;stroke-width:0.0465663;stroke-linejoin:bevel"
       d="m 35.784946,21.103943 v -8.831542 h 6.078853 6.078853 v 8.831542 8.831541 h -6.078853 -6.078853 z"
       id="path415"
       transform="matrix(0.10918998,0,0,0.10918998,0.76702509,7.9892473)" />
    <path
       style="fill:#aa0000;stroke:#000000;stroke-width:0.0465663;stroke-linejoin:bevel"
       d="m 12.387097,21.103943 v -8.602151 h 5.390681 5.390681 v 8.602151 8.60215 h -5.390681 -5.390681 z"
       id="path486"
       transform="matrix(0.10918998,0,0,0.10918998,0.76702509,7.9892473)" />
    <path
       style="fill:#aa0000;stroke:#000000;stroke-width:0.0465663;stroke-linejoin:bevel"
       d="M 4.2174284,53.650544 C 2.9066511,53.185672 1.4632183,51.883786 0.7936955,50.562546 L 0.22939068,49.448944 V 27.120766 4.7925882 L 0.82070306,3.6059788 C 1.4907962,2.2612769 2.3990024,1.4068145 3.8996416,0.70923853 4.9272914,0.2315328 5.0445438,0.22939068 30.164875,0.22939068 c 28.176298,0 25.913955,-0.13313548 27.881629,1.64079252 0.538392,0.4853779 1.219751,1.398634 1.514133,2.0294584 l 0.535239,1.1469534 0.0023,22.14851 0.0023,22.148507 -0.593725,1.191451 c -0.326547,0.655296 -1.009551,1.54738 -1.517784,1.982408 -1.855073,1.587874 -0.316518,1.505998 -27.922186,1.485924 C 8.8546172,53.98798 5.0214304,53.935647 4.2175339,53.650544 Z M 54.365591,27.0681 V 5.8494624 H 30.164875 5.9641577 V 27.0681 48.286738 H 30.164875 54.365591 Z"
       id="path488"
       transform="matrix(0.10918998,0,0,0.10918998,0.76702509,7.9892473)" />
    <path
       style="fill:#aa0000;stroke:#000000;stroke-width:0.0465663;stroke-linejoin:bevel"
       d="m 12.387097,39.225806 v -2.637992 h 17.663082 17.663083 v 2.637992 2.637993 H 30.050179 12.387097 Z"
       id="path490"
       transform="matrix(0.10918998,0,0,0.10918998,0.76702509,7.9892473)" />
    <path
       style="fill:#4d4d4d;stroke:#000000;stroke-width:0.0465663;stroke-linejoin:bevel"
       d=""
       id="path792"
       transform="matrix(0.10918998,0,0,0.10918998,0.76702509,7.9892473)" />
    <path
       style="fill:url(#linearGradient1205);fill-opacity:1;stroke:#000000;stroke-width:0.229391"
       d="M 4.7711291,53.574288 C 3.5168048,53.330397 2.1839499,52.34563 1.2686885,50.986545 L 0.45878136,49.783903 V 27.17571 4.5675185 L 1.2057619,3.3174781 C 1.7409207,2.4219125 2.2971164,1.8616518 3.1671634,1.3417422 4.2407425,0.70020872 4.6529264,0.59805401 6.721258,0.46090332 c 4.199624,-0.27847626 48.57034,-0.006346 49.51095,0.30365603 0.955366,0.31486605 2.467158,1.85253365 3.163682,3.21783465 0.470878,0.9229956 0.475078,1.1286256 0.475078,23.258759 v 22.327528 l -0.74552,1.2327 c -1.083401,1.791374 -2.0903,2.512713 -3.865673,2.769351 -1.713771,0.247735 -49.2156402,0.251077 -50.4886459,0.0036 z M 54.480287,27.0681 V 5.734767 H 30.164875 5.8494624 L 5.7902869,26.83871 c -0.032546,11.607168 -0.0098,21.233447 0.050551,21.391729 0.087233,0.228792 5.0837861,0.275815 24.3745871,0.229391 l 24.264862,-0.0584 z"
       id="path1752"
       transform="matrix(0.10918998,0,0,0.10918998,0.76702509,7.9892473)" />
    <path
       style="fill:#008080;stroke:#000000;stroke-width:0.229391"
       d="m 12.616487,21.103943 v -8.37276 h 5.161291 5.16129 v 8.37276 8.37276 h -5.16129 -5.161291 z"
       id="path1754"
       transform="matrix(0.10918998,0,0,0.10918998,0.76702509,7.9892473)" />
    <path
       style="fill:#008080;stroke:#000000;stroke-width:0.229391"
       d="m 36.014337,21.103943 v -8.602151 h 5.849462 5.849463 v 8.602151 8.60215 h -5.849463 -5.849462 z"
       id="path1756"
       transform="matrix(0.10918998,0,0,0.10918998,0.76702509,7.9892473)" />
    <path
       style="fill:#ff0000;stroke:#000000;stroke-width:0.229391"
       d="m 12.616487,39.225806 v -2.408602 h 17.433692 17.433692 v 2.408602 2.408603 H 30.050179 12.616487 Z"
       id="path1758"
       transform="matrix(0.10918998,0,0,0.10918998,0.76702509,7.9892473)" />
    <text
       xml:space="preserve"
       style="font-size:5.82346px;font-family:'Microsoft YaHei UI';-inkscape-font-specification:'Microsoft YaHei UI';fill:url(#linearGradient1197);fill-opacity:1;stroke:#050000;stroke-width:0"
       x="7.6800427"
       y="13.324293"
       id="text405"><tspan
         sodipodi:role="line"
         id="tspan403"
         x="7.6800427"
         y="13.324293"
         style="fill:url(#linearGradient1197);fill-opacity:1;stroke-width:0">babbler</tspan></text>
    <text
       xml:space="preserve"
       transform="matrix(0.10918998,0,0,0.10918998,0.76702509,7.9892473)"
       id="text441"
       style="font-size:53.3333px;font-family:'Microsoft YaHei UI';-inkscape-font-specification:'Microsoft YaHei UI';white-space:pre;shape-inside:url(#rect443);fill:#aa0000;stroke:#050000;stroke-width:0" />
  </g>
</svg>
