<?xml version="1.0" encoding="UTF-8" standalone="no"?>
<svg
   width="24"
   height="24"
   viewBox="0 0 24 24"
   version="1.1"
   id="svg6"
   sodipodi:docname="new.svg"
   inkscape:version="1.2 (dc2aedaf03, 2022-05-15)"
   xmlns:inkscape="http://www.inkscape.org/namespaces/inkscape"
   xmlns:sodipodi="http://sodipodi.sourceforge.net/DTD/sodipodi-0.dtd"
   xmlns="http://www.w3.org/2000/svg"
   xmlns:svg="http://www.w3.org/2000/svg">
  <defs
     id="defs10" />
  <sodipodi:namedview
     id="namedview8"
     pagecolor="#ffffff"
     bordercolor="#000000"
     borderopacity="0.25"
     inkscape:showpageshadow="2"
     inkscape:pageopacity="0.0"
     inkscape:pagecheckerboard="0"
     inkscape:deskcolor="#d1d1d1"
     showgrid="false"
     inkscape:zoom="34.875"
     inkscape:cx="11.053763"
     inkscape:cy="12.014337"
     inkscape:window-width="1920"
     inkscape:window-height="1017"
     inkscape:window-x="-8"
     inkscape:window-y="-8"
     inkscape:window-maximized="1"
     inkscape:current-layer="svg6" />
  <path
     d="M12 2C6.486 2 2 5.589 2 10c0 2.908 1.898 5.515 5 6.934V22l5.34-4.005C17.697 17.852 22 14.32 22 10c0-4.411-4.486-8-10-8zm0 14h-.333L9 18v-2.417l-.641-.247C5.67 14.301 4 12.256 4 10c0-3.309 3.589-6 8-6s8 2.691 8 6-3.589 6-8 6z"
     id="path2" />
  <path
     d="M13 6h-2v3H8v2h3v3h2v-3h3V9h-3z"
     id="path4" />
  <path
     style="fill:#008000;stroke:#000000;stroke-width:0.00582079;stroke-linejoin:bevel"
     d="M 7.0250896,19.444611 V 16.932379 L 6.7142446,16.776484 C 4.2750804,15.553197 2.6625242,13.644678 2.1696993,11.397849 2.0567863,10.88307 2.0241314,10.565706 2.0251311,9.9928315 2.0269745,8.9365503 2.2462883,8.0203776 2.7315978,7.0416017 2.927867,6.6457646 3.3242263,6.0315452 3.612824,5.6760075 4.8760244,4.1198079 6.8247183,2.9334293 9.0252662,2.3808746 9.9375128,2.1518107 10.710609,2.0514159 11.730107,2.0296221 c 1.210345,-0.025874 2.183834,0.082111 3.308344,0.3669806 1.324225,0.3354623 2.67661,0.966151 3.70891,1.7296606 1.574441,1.1644885 2.637176,2.6735245 3.04107,4.3181811 0.299475,1.2194638 0.252934,2.3959686 -0.142355,3.5985666 -0.715416,2.176531 -2.630586,4.063715 -5.158621,5.083239 -1.155194,0.465876 -2.513077,0.770773 -3.682549,0.826874 -0.190369,0.0091 -0.385984,0.02664 -0.434701,0.03891 -0.06211,0.01564 -4.6191208,3.394516 -5.3092731,3.936656 -0.028615,0.02248 -0.035842,-0.47839 -0.035842,-2.484076 z m 3.3167224,-2.42669 1.337824,-1.003584 h 0.34494 c 1.911974,0 3.82795,-0.548401 5.274681,-1.509748 2.243063,-1.490506 3.186244,-3.741598 2.485066,-5.9311123 C 19.526508,7.7684166 19.087235,7.0811183 18.382184,6.3796519 17.133259,5.1370761 15.454009,4.3665845 13.34767,4.0696626 12.906686,4.0074989 11.607849,3.9831022 11.08974,4.0272507 7.7398073,4.3127012 4.9663816,6.1613104 4.2046151,8.6164875 4.0376437,9.1546371 4.0024459,9.3939788 4.0022084,9.9928315 4.001979,10.568449 4.053264,10.925649 4.205176,11.406536 c 0.3598089,1.138997 1.2015778,2.211431 2.3611322,3.00814 0.5872488,0.403488 1.1710753,0.700866 2.014337,1.026022 l 0.3942652,0.152027 v 1.21439 c 0,0.667915 0.00654,1.21439 0.014539,1.21439 0.008,0 0.61656,-0.451613 1.3523626,-1.003584 z"
     id="path377" />
  <path
     style="fill:#008000;stroke:#000000;stroke-width:0.00582079;stroke-linejoin:bevel"
     d="M 11.010753,12.487455 V 10.996416 H 9.5053763 8 V 10.007168 9.0179211 H 9.5053763 11.010753 V 7.5125448 6.0071685 H 12 12.989247 V 7.5125448 9.0179211 H 14.494624 16 v 0.9892469 0.989248 h -1.505376 -1.505377 v 1.491039 1.49104 H 12 11.010753 Z"
     id="path379" />
</svg>
