<?xml version="1.0" encoding="UTF-8" standalone="no"?>
<svg
   width="24"
   height="24"
   viewBox="0 0 24 24"
   version="1.1"
   id="svg4"
   sodipodi:docname="trendDown.svg"
   inkscape:version="1.2 (dc2aedaf03, 2022-05-15)"
   xmlns:inkscape="http://www.inkscape.org/namespaces/inkscape"
   xmlns:sodipodi="http://sodipodi.sourceforge.net/DTD/sodipodi-0.dtd"
   xmlns="http://www.w3.org/2000/svg"
   xmlns:svg="http://www.w3.org/2000/svg">
  <defs
     id="defs8" />
  <sodipodi:namedview
     id="namedview6"
     pagecolor="#ffffff"
     bordercolor="#000000"
     borderopacity="0.25"
     inkscape:showpageshadow="2"
     inkscape:pageopacity="0.0"
     inkscape:pagecheckerboard="0"
     inkscape:deskcolor="#d1d1d1"
     showgrid="false"
     inkscape:zoom="34.875"
     inkscape:cx="11.053763"
     inkscape:cy="12.014337"
     inkscape:window-width="1920"
     inkscape:window-height="1017"
     inkscape:window-x="-8"
     inkscape:window-y="-8"
     inkscape:window-maximized="1"
     inkscape:current-layer="svg4" />
  <path
     d="m14 9.586-4 4-6.293-6.293-1.414 1.414L10 16.414l4-4 4.293 4.293L16 19h6v-6l-2.293 2.293z"
     id="path2" />
  <path
     style="fill:#d40000;stroke:#000000;stroke-width:0.00582079;stroke-linejoin:bevel"
     d="m 17.168595,17.870833 c 0.618922,-0.61907 1.125312,-1.138457 1.125312,-1.154193 0,-0.01574 -0.967741,-0.996288 -2.150535,-2.179003 L 13.992837,12.387245 11.992776,14.387153 9.9927151,16.387061 6.1575581,12.551823 2.3224011,8.7165864 3.0179635,8.0214586 3.7135258,7.3263308 6.853116,10.466019 9.9927062,13.605708 11.99278,11.605787 13.992854,9.6058656 16.838775,12.451678 c 1.565256,1.565197 2.858739,2.845813 2.874406,2.845813 0.01567,0 0.534998,-0.50639 1.154068,-1.125312 l 1.125583,-1.125312 v 2.974775 2.974774 h -2.974775 -2.974774 z"
     id="path271" />
</svg>
