<?xml version="1.0" encoding="UTF-8" standalone="no"?>
<svg
   width="20"
   height="20.00065"
   viewBox="0 0 20 20.00065"
   version="1.1"
   id="svg6"
   sodipodi:docname="userBig.svg"
   inkscape:version="1.2 (dc2aedaf03, 2022-05-15)"
   xmlns:inkscape="http://www.inkscape.org/namespaces/inkscape"
   xmlns:sodipodi="http://sodipodi.sourceforge.net/DTD/sodipodi-0.dtd"
   xmlns="http://www.w3.org/2000/svg"
   xmlns:svg="http://www.w3.org/2000/svg">
  <defs
     id="defs10" />
  <sodipodi:namedview
     id="namedview8"
     pagecolor="#ffffff"
     bordercolor="#000000"
     borderopacity="0.25"
     inkscape:showpageshadow="2"
     inkscape:pageopacity="0.0"
     inkscape:pagecheckerboard="0"
     inkscape:deskcolor="#d1d1d1"
     showgrid="false"
     inkscape:zoom="16"
     inkscape:cx="13.1875"
     inkscape:cy="16.1875"
     inkscape:window-width="1920"
     inkscape:window-height="1017"
     inkscape:window-x="-8"
     inkscape:window-y="-8"
     inkscape:window-maximized="1"
     inkscape:current-layer="svg6" />
  <path
     d="M 10,0 A 10.13,10.13 0 0 0 0,10 10,10 0 0 0 4,17.92 V 18 h 0.1 a 9.7,9.7 0 0 0 11.8,0 H 16 V 17.92 A 10,10 0 0 0 20,10 10.13,10.13 0 0 0 10,0 Z M 6.07,16.93 A 3,3 0 0 1 9.0000002,14.57 H 11 a 3,3 0 0 1 2.93,2.36 7.75,7.75 0 0 1 -7.86,0 z m 9.54,-1.29 A 5,5 0 0 0 11,12.57 H 9.0000002 A 5,5 0 0 0 4.39,15.64 8,8 0 0 1 2,10 a 8.1,8.1 0 0 1 8,-8 8.1,8.1 0 0 1 8,8 8,8 0 0 1 -2.39,5.64 z"
     id="path2" />
  <path
     d="m 10,4 a 3.91,3.91 0 0 0 -4,4 3.91,3.91 0 0 0 4,4 3.91,3.91 0 0 0 4,-4 3.91,3.91 0 0 0 -4,-4 z m 0,6 A 1.91,1.91 0 0 1 8.0000002,8 1.91,1.91 0 0 1 10,6 a 1.91,1.91 0 0 1 2,2 1.91,1.91 0 0 1 -2,2 z"
     id="path4" />
  <path
     style="fill:#280b0b;stroke:#000000;stroke-width:0.0811018"
     d=""
     id="path680" />
  <path
     style="fill:#280b0b;stroke:#000000;stroke-width:0.0811018"
     d=""
     id="path688" />
  <path
     style="fill:#280b0b;stroke:none;stroke-width:0.0811018;stroke-opacity:1"
     d=""
     id="path1292" />
</svg>
